<svg xmlns="http://www.w3.org/2000/svg" xmlns:xlink="http://www.w3.org/1999/xlink" width="81" zoomAndPan="magnify" viewBox="0 0 60.75 30.750001" height="41" preserveAspectRatio="xMidYMid meet" version="1.0"><defs><g/><clipPath id="998e10b40f"><path d="M 3 1 L 14 1 L 14 12 L 3 12 Z M 3 1 " clip-rule="nonzero"/></clipPath><clipPath id="ed7940d3c0"><path d="M 4.429688 14.097656 L 0.199219 4.582031 L 10.398438 0.0507812 L 14.628906 9.570312 Z M 4.429688 14.097656 " clip-rule="nonzero"/></clipPath><clipPath id="5c0215fb5f"><path d="M 4.429688 14.097656 L 0.199219 4.582031 L 10.398438 0.0507812 L 14.628906 9.570312 Z M 4.429688 14.097656 " clip-rule="nonzero"/></clipPath><clipPath id="818318ef9a"><path d="M 39 1 L 51 1 L 51 12 L 39 12 Z M 39 1 " clip-rule="nonzero"/></clipPath><clipPath id="0f79dc8d14"><path d="M 41.769531 0.558594 L 51.90625 2.953125 L 49.339844 13.8125 L 39.203125 11.421875 Z M 41.769531 0.558594 " clip-rule="nonzero"/></clipPath><clipPath id="e9f0391064"><path d="M 41.769531 0.558594 L 51.90625 2.953125 L 49.339844 13.8125 L 39.203125 11.421875 Z M 41.769531 0.558594 " clip-rule="nonzero"/></clipPath><clipPath id="c1c8d513fd"><path d="M 2.664062 9.671875 L 59.777344 9.671875 L 59.777344 27.523438 L 2.664062 27.523438 Z M 2.664062 9.671875 " clip-rule="nonzero"/></clipPath><clipPath id="6458ff2500"><path d="M 50.828125 9.671875 L 2.664062 9.671875 L 2.664062 27.523438 L 50.828125 27.523438 L 59.753906 18.597656 Z M 50.828125 9.671875 " clip-rule="nonzero"/></clipPath><clipPath id="ae3bdade14"><path d="M 2.664062 15.0625 L 18.28125 15.0625 L 18.28125 27.707031 L 2.664062 27.707031 Z M 2.664062 15.0625 " clip-rule="nonzero"/></clipPath><clipPath id="5ad2392231"><path d="M 32.757812 9.890625 L 51.859375 9.890625 L 51.859375 19.5625 L 32.757812 19.5625 Z M 32.757812 9.890625 " clip-rule="nonzero"/></clipPath><clipPath id="1566ce828a"><path d="M 3 3 L 14 3 L 14 13 L 3 13 Z M 3 3 " clip-rule="nonzero"/></clipPath><clipPath id="570aead4cc"><path d="M 4.964844 14.308594 L 1.339844 6.152344 L 10.179688 2.226562 L 13.800781 10.386719 Z M 4.964844 14.308594 " clip-rule="nonzero"/></clipPath><clipPath id="d9d23434d5"><path d="M 4.964844 14.308594 L 1.339844 6.152344 L 10.179688 2.226562 L 13.800781 10.386719 Z M 4.964844 14.308594 " clip-rule="nonzero"/></clipPath><clipPath id="bd4ae5c83a"><path d="M 40 2 L 50 2 L 50 12 L 40 12 Z M 40 2 " clip-rule="nonzero"/></clipPath><clipPath id="eecad98fee"><path d="M 42.226562 2.007812 L 50.914062 4.058594 L 48.691406 13.472656 L 40.003906 11.421875 Z M 42.226562 2.007812 " clip-rule="nonzero"/></clipPath><clipPath id="385220ca6f"><path d="M 42.226562 2.007812 L 50.914062 4.058594 L 48.691406 13.472656 L 40.003906 11.421875 Z M 42.226562 2.007812 " clip-rule="nonzero"/></clipPath></defs><g clip-path="url(#998e10b40f)"><g clip-path="url(#ed7940d3c0)"><g clip-path="url(#5c0215fb5f)"><path fill="#ff914d" d="M 12.765625 10.367188 C 11.8125 10.636719 10.847656 10.847656 9.871094 11 C 8.113281 11.257812 6.34375 11.429688 4.566406 11.503906 C 3.488281 11.554688 3.195312 11.316406 3.046875 10.238281 C 2.902344 9.214844 3.199219 8.242188 3.457031 7.277344 C 3.757812 6.195312 4.148438 5.148438 4.632812 4.136719 C 4.980469 3.371094 5.46875 2.703125 6.09375 2.136719 C 6.875 1.429688 7.476562 1.390625 8.316406 2.039062 C 9.136719 2.671875 9.808594 3.460938 10.488281 4.238281 C 11.570312 5.464844 12.46875 6.835938 13.414062 8.164062 C 14.015625 9.015625 13.765625 9.914062 12.765625 10.367188 Z M 12.765625 10.367188 " fill-opacity="1" fill-rule="nonzero"/></g></g></g><g clip-path="url(#818318ef9a)"><g clip-path="url(#0f79dc8d14)"><g clip-path="url(#e9f0391064)"><path fill="#ff914d" d="M 39.695312 9.457031 C 40.054688 8.535156 40.472656 7.640625 40.945312 6.769531 C 41.800781 5.210938 42.738281 3.703125 43.75 2.238281 C 44.363281 1.351562 44.730469 1.261719 45.679688 1.796875 C 46.582031 2.300781 47.175781 3.125 47.789062 3.914062 C 48.464844 4.808594 49.0625 5.753906 49.578125 6.75 C 49.976562 7.492188 50.214844 8.285156 50.285156 9.125 C 50.375 10.171875 50.042969 10.675781 49.019531 10.953125 C 48.019531 11.222656 46.984375 11.277344 45.953125 11.351562 C 44.320312 11.472656 42.691406 11.355469 41.058594 11.304688 C 40.015625 11.269531 39.453125 10.527344 39.695312 9.457031 Z M 39.695312 9.457031 " fill-opacity="1" fill-rule="nonzero"/></g></g></g><g clip-path="url(#c1c8d513fd)"><g clip-path="url(#6458ff2500)"><path fill="#ffffff" d="M 2.664062 9.671875 L 59.777344 9.671875 L 59.777344 27.523438 L 2.664062 27.523438 Z M 2.664062 9.671875 " fill-opacity="1" fill-rule="nonzero"/></g></g><g clip-path="url(#ae3bdade14)"><path fill="#646161" d="M 0.222656 18.292969 C -0.304688 19.210938 -0.078125 20.382812 0.214844 21.410156 C 0.507812 22.4375 0.855469 23.539062 0.527344 24.554688 C 0.425781 24.859375 0.265625 25.152344 0.246094 25.476562 C 0.199219 26.09375 0.683594 26.640625 1.238281 26.859375 C 1.789062 27.078125 2.402344 27.050781 2.992188 27.039062 C 3.585938 27.027344 4.203125 27.042969 4.722656 27.335938 C 5.78125 27.933594 6.042969 29.421875 6.945312 30.25 C 7.628906 30.882812 8.613281 31.054688 9.519531 30.929688 C 10.421875 30.804688 11.269531 30.414062 12.105469 30.023438 C 13.339844 29.453125 14.582031 28.871094 15.683594 28.054688 C 16.707031 27.289062 17.609375 26.300781 18.082031 25.082031 C 18.554688 23.867188 18.550781 22.40625 17.882812 21.296875 C 17.332031 20.382812 16.347656 19.652344 16.320312 18.574219 C 16.300781 17.941406 16.636719 17.320312 16.527344 16.699219 C 16.273438 15.277344 14.335938 15.0625 13.253906 15.21875 C 11.957031 15.40625 10.875 16.171875 9.96875 17.117188 C 9.386719 17.730469 8.832031 18.5 7.953125 18.625 C 6.644531 18.808594 5.3125 17.8125 4.117188 17.40625 C 2.832031 16.96875 1.023438 16.894531 0.222656 18.292969 " fill-opacity="1" fill-rule="nonzero"/></g><g clip-path="url(#5ad2392231)"><path fill="#ff914d" d="M 33.078125 6.628906 C 32.53125 7.582031 32.761719 8.800781 33.066406 9.863281 C 33.371094 10.929688 33.730469 12.070312 33.390625 13.125 C 33.289062 13.441406 33.121094 13.746094 33.097656 14.078125 C 33.050781 14.71875 33.554688 15.289062 34.128906 15.515625 C 34.703125 15.746094 35.335938 15.714844 35.949219 15.699219 C 36.5625 15.6875 37.203125 15.703125 37.746094 16.007812 C 38.839844 16.628906 39.113281 18.171875 40.046875 19.035156 C 40.757812 19.6875 41.777344 19.867188 42.714844 19.738281 C 43.652344 19.605469 44.535156 19.199219 45.398438 18.796875 C 46.679688 18.203125 47.96875 17.605469 49.109375 16.753906 C 50.171875 15.964844 51.105469 14.933594 51.597656 13.671875 C 52.089844 12.410156 52.085938 10.898438 51.390625 9.746094 C 50.820312 8.800781 49.796875 8.039062 49.769531 6.921875 C 49.75 6.265625 50.097656 5.625 49.984375 4.976562 C 49.722656 3.503906 47.710938 3.28125 46.589844 3.445312 C 45.246094 3.640625 44.125 4.429688 43.183594 5.414062 C 42.578125 6.050781 42.003906 6.847656 41.09375 6.976562 C 39.738281 7.164062 38.355469 6.132812 37.117188 5.710938 C 35.78125 5.257812 33.90625 5.179688 33.078125 6.628906 " fill-opacity="1" fill-rule="nonzero"/></g><g clip-path="url(#1566ce828a)"><g clip-path="url(#570aead4cc)"><g clip-path="url(#d9d23434d5)"><path fill="#ffffff" d="M 12.234375 11.050781 C 11.402344 11.289062 10.5625 11.472656 9.710938 11.601562 C 8.175781 11.828125 6.632812 11.976562 5.082031 12.042969 C 4.144531 12.089844 3.886719 11.878906 3.753906 10.9375 C 3.632812 10.046875 3.890625 9.199219 4.113281 8.355469 C 4.378906 7.414062 4.71875 6.5 5.140625 5.617188 C 5.445312 4.949219 5.871094 4.367188 6.414062 3.871094 C 7.09375 3.257812 7.621094 3.222656 8.355469 3.785156 C 9.070312 4.339844 9.65625 5.027344 10.25 5.703125 C 11.191406 6.773438 11.972656 7.96875 12.800781 9.128906 C 13.324219 9.871094 13.105469 10.65625 12.234375 11.050781 Z M 12.234375 11.050781 " fill-opacity="1" fill-rule="nonzero"/></g></g></g><g clip-path="url(#bd4ae5c83a)"><g clip-path="url(#eecad98fee)"><g clip-path="url(#385220ca6f)"><path fill="#ffffff" d="M 40.421875 9.769531 C 40.734375 8.964844 41.097656 8.183594 41.511719 7.425781 C 42.257812 6.066406 43.074219 4.75 43.957031 3.476562 C 44.492188 2.699219 44.816406 2.621094 45.640625 3.085938 C 46.429688 3.527344 46.945312 4.246094 47.480469 4.933594 C 48.074219 5.714844 48.59375 6.539062 49.042969 7.410156 C 49.390625 8.058594 49.597656 8.746094 49.660156 9.480469 C 49.738281 10.394531 49.449219 10.835938 48.554688 11.074219 C 47.679688 11.308594 46.777344 11.359375 45.882812 11.425781 C 44.457031 11.527344 43.035156 11.425781 41.609375 11.382812 C 40.699219 11.351562 40.210938 10.703125 40.421875 9.769531 Z M 40.421875 9.769531 " fill-opacity="1" fill-rule="nonzero"/></g></g></g><g fill="#000000" fill-opacity="1"><g transform="translate(14.133745, 21.016075)"><g><path d="M 1.40625 0.078125 C 2.375 0.078125 2.8125 -0.421875 2.875 -1.265625 C 2.921875 -1.75 2.9375 -2.375 2.953125 -2.984375 C 2.953125 -3.609375 2.953125 -4.390625 2.9375 -4.90625 C 2.9375 -5.09375 2.84375 -5.1875 2.59375 -5.1875 C 2.328125 -5.1875 2.265625 -5.0625 2.265625 -4.890625 C 2.28125 -4.515625 2.28125 -3.953125 2.28125 -3.421875 C 2.28125 -3.25 2.28125 -3.09375 2.28125 -2.921875 C 2.28125 -2.359375 2.265625 -1.71875 2.21875 -1.359375 C 2.171875 -0.8125 1.890625 -0.53125 1.375 -0.53125 C 1.03125 -0.53125 0.796875 -0.59375 0.5 -0.75 C 0.46875 -0.765625 0.4375 -0.78125 0.40625 -0.78125 C 0.296875 -0.78125 0.203125 -0.703125 0.125 -0.578125 C 0.09375 -0.515625 0.078125 -0.453125 0.078125 -0.40625 C 0.078125 -0.328125 0.109375 -0.265625 0.1875 -0.21875 C 0.53125 -0.015625 0.890625 0.078125 1.40625 0.078125 Z M 1.40625 0.078125 "/></g></g></g><g fill="#000000" fill-opacity="1"><g transform="translate(17.669882, 21.016075)"><g><path d="M 2.234375 0.078125 C 3.484375 0.078125 4.125 -0.609375 4.125 -1.65625 C 4.125 -2.09375 3.984375 -2.484375 3.75 -2.765625 L 3.765625 -2.78125 C 3.828125 -2.84375 3.859375 -2.90625 3.859375 -2.984375 C 3.859375 -3.046875 3.84375 -3.09375 3.78125 -3.140625 C 3.453125 -3.515625 2.9375 -3.71875 2.234375 -3.71875 C 1.078125 -3.71875 0.390625 -2.90625 0.390625 -1.875 C 0.390625 -0.65625 0.953125 0.078125 2.234375 0.078125 Z M 1.015625 -1.859375 C 1.015625 -2.609375 1.515625 -3.15625 2.234375 -3.15625 C 2.625 -3.15625 2.921875 -3.046875 3.15625 -2.890625 C 3.09375 -2.8125 3.0625 -2.75 3.0625 -2.6875 C 3.0625 -2.625 3.09375 -2.578125 3.15625 -2.53125 C 3.375 -2.3125 3.484375 -1.96875 3.484375 -1.625 C 3.484375 -0.953125 3.109375 -0.5 2.28125 -0.5 C 1.421875 -0.5 1.015625 -0.984375 1.015625 -1.859375 Z M 1.015625 -1.859375 "/></g></g></g><g fill="#000000" fill-opacity="1"><g transform="translate(22.175722, 21.016075)"><g><path d="M 2.0625 0.078125 C 2.71875 0.078125 3.234375 -0.265625 3.53125 -0.890625 C 3.546875 -0.640625 3.609375 -0.375 3.703125 -0.09375 C 3.765625 0.015625 3.84375 0.0625 3.9375 0.0625 C 3.984375 0.0625 4.0625 0.046875 4.140625 0.015625 C 4.265625 -0.03125 4.328125 -0.09375 4.328125 -0.203125 C 4.328125 -0.234375 4.3125 -0.28125 4.3125 -0.328125 C 4.15625 -0.75 4.109375 -1.078125 4.109375 -1.8125 C 4.109375 -2.59375 4.140625 -2.953125 4.125 -3.484375 C 4.125 -3.65625 4.046875 -3.71875 3.875 -3.71875 C 3.578125 -3.71875 3.515625 -3.65625 3.5 -3.5 C 3.5 -3.296875 3.484375 -2.65625 3.484375 -2.34375 C 3.421875 -0.9375 2.875 -0.5 2.1875 -0.5 C 1.515625 -0.5 1.21875 -0.90625 1.21875 -1.71875 C 1.21875 -2.234375 1.28125 -2.921875 1.359375 -3.421875 C 1.390625 -3.5625 1.328125 -3.65625 1.109375 -3.71875 C 1.078125 -3.71875 1.03125 -3.71875 1 -3.71875 C 0.875 -3.71875 0.765625 -3.671875 0.75 -3.53125 C 0.640625 -2.9375 0.578125 -2.296875 0.578125 -1.65625 C 0.578125 -0.53125 1.015625 0.078125 2.0625 0.078125 Z M 2.0625 0.078125 "/></g></g></g><g fill="#000000" fill-opacity="1"><g transform="translate(27.053409, 21.016075)"><g><path d="M 0.9375 0.078125 C 1.171875 0.078125 1.265625 -0.015625 1.265625 -0.1875 C 1.25 -0.640625 1.21875 -1.625 1.21875 -1.859375 C 1.21875 -2.921875 1.8125 -3.140625 2.1875 -3.140625 C 2.4375 -3.140625 2.640625 -3.09375 2.8125 -2.984375 C 2.84375 -2.953125 2.875 -2.953125 2.90625 -2.953125 C 3 -2.953125 3.078125 -3.015625 3.125 -3.09375 C 3.1875 -3.1875 3.203125 -3.25 3.203125 -3.3125 C 3.203125 -3.375 3.1875 -3.421875 3.125 -3.46875 C 2.921875 -3.625 2.671875 -3.703125 2.3125 -3.703125 C 1.9375 -3.703125 1.5 -3.53125 1.234375 -3.09375 L 1.265625 -3.4375 C 1.265625 -3.609375 1.203125 -3.71875 0.890625 -3.71875 C 0.71875 -3.71875 0.640625 -3.640625 0.625 -3.4375 C 0.59375 -2.953125 0.578125 -2.71875 0.578125 -2.0625 C 0.578125 -1.3125 0.609375 -0.703125 0.625 -0.1875 C 0.625 -0.046875 0.65625 0.078125 0.9375 0.078125 Z M 0.9375 0.078125 "/></g></g></g><g fill="#000000" fill-opacity="1"><g transform="translate(30.465603, 21.016075)"><g><path d="M 0.859375 0.0625 C 1.09375 0.09375 1.171875 0.03125 1.203125 -0.109375 C 1.234375 -0.3125 1.25 -1 1.25 -1.328125 C 1.296875 -2.734375 1.859375 -3.15625 2.53125 -3.15625 C 3.234375 -3.15625 3.53125 -2.71875 3.53125 -1.953125 C 3.53125 -1.46875 3.46875 -0.78125 3.375 -0.234375 C 3.375 -0.21875 3.375 -0.1875 3.375 -0.171875 C 3.375 -0.0625 3.4375 0 3.625 0.0625 C 3.65625 0.0625 3.703125 0.078125 3.75 0.078125 C 3.875 0.078125 3.96875 0.015625 3.984375 -0.09375 C 4.109375 -0.703125 4.171875 -1.40625 4.171875 -2.046875 C 4.171875 -3.09375 3.734375 -3.71875 2.671875 -3.71875 C 2.046875 -3.71875 1.546875 -3.421875 1.25 -2.84375 L 1.234375 -3.484375 C 1.21875 -3.640625 1.15625 -3.71875 0.9375 -3.71875 C 0.6875 -3.71875 0.59375 -3.65625 0.59375 -3.4375 C 0.609375 -2.953125 0.625 -2.578125 0.625 -1.84375 C 0.625 -1.09375 0.609375 -0.734375 0.578125 -0.21875 C 0.5625 -0.03125 0.625 0.03125 0.859375 0.0625 Z M 0.859375 0.0625 "/></g></g></g><g fill="#000000" fill-opacity="1"><g transform="translate(35.212051, 21.016075)"><g><path d="M 1.734375 0.078125 C 2.46875 0.078125 2.96875 -0.203125 3.296875 -0.65625 C 3.34375 -0.421875 3.40625 -0.28125 3.515625 -0.09375 C 3.53125 0 3.625 0.0625 3.734375 0.0625 C 3.796875 0.0625 3.859375 0.046875 3.921875 0.015625 C 4.0625 -0.03125 4.140625 -0.109375 4.140625 -0.203125 C 4.140625 -0.234375 4.125 -0.265625 4.109375 -0.3125 C 4 -0.453125 3.875 -0.828125 3.875 -1.0625 C 3.875 -1.578125 3.90625 -1.859375 3.90625 -2.296875 C 3.90625 -3.21875 3.234375 -3.71875 2.140625 -3.71875 C 1.546875 -3.71875 1.0625 -3.609375 0.71875 -3.40625 C 0.640625 -3.359375 0.59375 -3.296875 0.59375 -3.203125 C 0.59375 -3.171875 0.59375 -3.109375 0.625 -3.0625 C 0.703125 -2.921875 0.78125 -2.875 0.859375 -2.875 C 0.90625 -2.875 0.96875 -2.875 1.015625 -2.90625 C 1.34375 -3.0625 1.671875 -3.171875 2.09375 -3.171875 C 2.828125 -3.171875 3.265625 -2.859375 3.265625 -2.3125 L 3.265625 -1.703125 C 2.96875 -2.03125 2.453125 -2.328125 1.859375 -2.328125 C 0.828125 -2.328125 0.296875 -1.828125 0.296875 -1.109375 C 0.296875 -0.390625 0.84375 0.078125 1.734375 0.078125 Z M 0.9375 -1.15625 C 0.9375 -1.546875 1.234375 -1.828125 1.890625 -1.828125 C 2.5 -1.828125 2.984375 -1.5 3.1875 -1.109375 C 2.8125 -0.65625 2.40625 -0.484375 1.875 -0.484375 C 1.3125 -0.484375 0.9375 -0.71875 0.9375 -1.15625 Z M 0.9375 -1.15625 "/></g></g></g><g fill="#000000" fill-opacity="1"><g transform="translate(39.652271, 21.016075)"><g><path d="M 0.984375 0.078125 C 1.25 0.078125 1.359375 0.015625 1.328125 -0.265625 C 1.25 -0.890625 1.21875 -1.53125 1.21875 -2.5 C 1.21875 -3.765625 1.28125 -4.625 1.3125 -5.265625 C 1.328125 -5.46875 1.25 -5.53125 0.96875 -5.53125 C 0.78125 -5.53125 0.703125 -5.484375 0.6875 -5.296875 C 0.640625 -4.671875 0.578125 -3.84375 0.578125 -2.5 C 0.578125 -1.6875 0.640625 -0.890625 0.703125 -0.1875 C 0.703125 0 0.78125 0.078125 0.984375 0.078125 Z M 0.984375 0.078125 "/></g></g></g></svg>