<svg xmlns="http://www.w3.org/2000/svg" xmlns:xlink="http://www.w3.org/1999/xlink" width="80" zoomAndPan="magnify" viewBox="0 0 60 30.000001" height="40" preserveAspectRatio="xMidYMid meet" version="1.0"><defs><g/><clipPath id="7cb2e845a0"><path d="M 3.1875 8.707031 L 58.902344 8.707031 L 58.902344 28.355469 L 3.1875 28.355469 Z M 3.1875 8.707031 " clip-rule="nonzero"/></clipPath><clipPath id="3c2a73e136"><path d="M 50.179688 8.707031 L 3.1875 8.707031 L 3.1875 28.355469 L 50.179688 28.355469 L 58.886719 18.53125 Z M 50.179688 8.707031 " clip-rule="nonzero"/></clipPath><clipPath id="e81ea7a6f9"><path d="M 3 0 L 14 0 L 14 11 L 3 11 Z M 3 0 " clip-rule="nonzero"/></clipPath><clipPath id="f55e899bae"><path d="M 15.765625 7.476562 L 8.578125 14.660156 L 0.878906 6.964844 L 8.066406 -0.222656 Z M 15.765625 7.476562 " clip-rule="nonzero"/></clipPath><clipPath id="85257dc9ca"><path d="M 15.765625 7.476562 L 8.578125 14.660156 L 0.878906 6.964844 L 8.066406 -0.222656 Z M 15.765625 7.476562 " clip-rule="nonzero"/></clipPath><clipPath id="d9b728ea19"><path d="M 40 0 L 51 0 L 51 12 L 40 12 Z M 40 0 " clip-rule="nonzero"/></clipPath><clipPath id="dc758f6c2e"><path d="M 52.472656 6.609375 L 46.253906 14.644531 L 37.644531 7.984375 L 43.859375 -0.0546875 Z M 52.472656 6.609375 " clip-rule="nonzero"/></clipPath><clipPath id="c3c6f1a5f9"><path d="M 52.472656 6.609375 L 46.253906 14.644531 L 37.644531 7.984375 L 43.859375 -0.0546875 Z M 52.472656 6.609375 " clip-rule="nonzero"/></clipPath></defs><g clip-path="url(#7cb2e845a0)"><g clip-path="url(#3c2a73e136)"><path fill="#d9d9d9" d="M 3.1875 8.707031 L 58.902344 8.707031 L 58.902344 28.355469 L 3.1875 28.355469 Z M 3.1875 8.707031 " fill-opacity="1" fill-rule="nonzero"/></g></g><g fill="#000000" fill-opacity="1"><g transform="translate(15.83399, 19.595682)"><g><path d="M 1.3125 0.0625 C 2.203125 0.0625 2.609375 -0.390625 2.671875 -1.171875 C 2.703125 -1.625 2.71875 -2.203125 2.734375 -2.765625 C 2.734375 -3.34375 2.734375 -4.078125 2.71875 -4.546875 C 2.71875 -4.71875 2.640625 -4.796875 2.40625 -4.796875 C 2.171875 -4.796875 2.09375 -4.6875 2.09375 -4.53125 C 2.109375 -4.1875 2.125 -3.65625 2.125 -3.171875 C 2.125 -3.015625 2.125 -2.859375 2.125 -2.71875 C 2.109375 -2.1875 2.09375 -1.59375 2.0625 -1.265625 C 2.015625 -0.75 1.75 -0.5 1.28125 -0.5 C 0.953125 -0.5 0.75 -0.5625 0.453125 -0.703125 C 0.4375 -0.703125 0.40625 -0.71875 0.375 -0.71875 C 0.28125 -0.71875 0.1875 -0.65625 0.125 -0.53125 C 0.09375 -0.484375 0.078125 -0.421875 0.078125 -0.375 C 0.078125 -0.296875 0.109375 -0.25 0.171875 -0.203125 C 0.5 -0.015625 0.828125 0.0625 1.3125 0.0625 Z M 1.3125 0.0625 "/></g></g></g><g fill="#000000" fill-opacity="1"><g transform="translate(19.11764, 19.595682)"><g><path d="M 2.0625 0.0625 C 3.234375 0.0625 3.828125 -0.5625 3.828125 -1.53125 C 3.828125 -1.9375 3.6875 -2.3125 3.484375 -2.578125 C 3.546875 -2.625 3.578125 -2.703125 3.578125 -2.765625 C 3.578125 -2.828125 3.5625 -2.875 3.515625 -2.921875 C 3.203125 -3.265625 2.71875 -3.453125 2.078125 -3.453125 C 1 -3.453125 0.359375 -2.6875 0.359375 -1.75 C 0.359375 -0.609375 0.875 0.0625 2.0625 0.0625 Z M 0.953125 -1.71875 C 0.953125 -2.421875 1.40625 -2.921875 2.0625 -2.921875 C 2.4375 -2.921875 2.71875 -2.828125 2.921875 -2.6875 C 2.859375 -2.609375 2.828125 -2.546875 2.828125 -2.5 C 2.828125 -2.4375 2.875 -2.390625 2.921875 -2.34375 C 3.125 -2.140625 3.234375 -1.828125 3.234375 -1.5 C 3.234375 -0.890625 2.890625 -0.453125 2.125 -0.453125 C 1.3125 -0.453125 0.953125 -0.90625 0.953125 -1.71875 Z M 0.953125 -1.71875 "/></g></g></g><g fill="#000000" fill-opacity="1"><g transform="translate(23.301758, 19.595682)"><g><path d="M 1.90625 0.0625 C 2.53125 0.0625 3 -0.25 3.265625 -0.828125 C 3.28125 -0.59375 3.34375 -0.34375 3.4375 -0.09375 C 3.5 0.015625 3.5625 0.0625 3.640625 0.0625 C 3.703125 0.0625 3.765625 0.046875 3.84375 0.015625 C 3.953125 -0.03125 4.015625 -0.09375 4.015625 -0.1875 C 4.015625 -0.21875 4 -0.265625 3.984375 -0.296875 C 3.859375 -0.6875 3.8125 -1 3.8125 -1.671875 C 3.8125 -2.40625 3.84375 -2.734375 3.828125 -3.234375 C 3.828125 -3.390625 3.75 -3.453125 3.578125 -3.453125 C 3.3125 -3.453125 3.25 -3.390625 3.25 -3.25 C 3.234375 -3.046875 3.234375 -2.46875 3.234375 -2.171875 C 3.1875 -0.875 2.65625 -0.453125 2.03125 -0.453125 C 1.40625 -0.453125 1.125 -0.84375 1.125 -1.59375 C 1.125 -2.0625 1.1875 -2.71875 1.265625 -3.171875 C 1.296875 -3.3125 1.234375 -3.390625 1.03125 -3.4375 C 1 -3.453125 0.953125 -3.453125 0.921875 -3.453125 C 0.8125 -3.453125 0.703125 -3.40625 0.6875 -3.28125 C 0.59375 -2.71875 0.546875 -2.125 0.546875 -1.53125 C 0.546875 -0.5 0.953125 0.0625 1.90625 0.0625 Z M 1.90625 0.0625 "/></g></g></g><g fill="#000000" fill-opacity="1"><g transform="translate(27.831171, 19.595682)"><g><path d="M 0.859375 0.0625 C 1.078125 0.0625 1.171875 -0.015625 1.171875 -0.171875 C 1.15625 -0.59375 1.125 -1.515625 1.125 -1.71875 C 1.125 -2.703125 1.6875 -2.90625 2.015625 -2.90625 C 2.25 -2.90625 2.4375 -2.859375 2.609375 -2.765625 C 2.625 -2.734375 2.671875 -2.734375 2.703125 -2.734375 C 2.78125 -2.734375 2.859375 -2.796875 2.90625 -2.875 C 2.953125 -2.953125 2.96875 -3.015625 2.96875 -3.078125 C 2.96875 -3.125 2.953125 -3.171875 2.890625 -3.21875 C 2.71875 -3.359375 2.46875 -3.4375 2.140625 -3.4375 C 1.796875 -3.4375 1.390625 -3.28125 1.140625 -2.875 L 1.171875 -3.1875 C 1.171875 -3.34375 1.109375 -3.4375 0.828125 -3.4375 C 0.65625 -3.4375 0.59375 -3.375 0.578125 -3.1875 C 0.5625 -2.734375 0.546875 -2.515625 0.546875 -1.90625 C 0.546875 -1.21875 0.5625 -0.65625 0.578125 -0.171875 C 0.578125 -0.046875 0.609375 0.0625 0.859375 0.0625 Z M 0.859375 0.0625 "/></g></g></g><g fill="#000000" fill-opacity="1"><g transform="translate(30.99973, 19.595682)"><g><path d="M 0.796875 0.0625 C 1.015625 0.09375 1.078125 0.03125 1.109375 -0.09375 C 1.15625 -0.28125 1.15625 -0.921875 1.15625 -1.21875 C 1.203125 -2.53125 1.71875 -2.921875 2.34375 -2.921875 C 3 -2.921875 3.28125 -2.53125 3.28125 -1.8125 C 3.28125 -1.359375 3.21875 -0.734375 3.125 -0.21875 C 3.125 -0.203125 3.125 -0.171875 3.125 -0.15625 C 3.125 -0.046875 3.1875 0 3.359375 0.046875 C 3.390625 0.0625 3.4375 0.0625 3.46875 0.0625 C 3.578125 0.0625 3.6875 0.015625 3.703125 -0.09375 C 3.8125 -0.65625 3.859375 -1.3125 3.859375 -1.90625 C 3.859375 -2.875 3.453125 -3.453125 2.484375 -3.453125 C 1.890625 -3.453125 1.421875 -3.171875 1.15625 -2.640625 L 1.140625 -3.234375 C 1.125 -3.375 1.0625 -3.453125 0.875 -3.453125 C 0.640625 -3.453125 0.546875 -3.390625 0.5625 -3.1875 C 0.5625 -2.734375 0.578125 -2.390625 0.578125 -1.703125 C 0.578125 -1.015625 0.5625 -0.671875 0.546875 -0.203125 C 0.515625 -0.03125 0.578125 0.03125 0.796875 0.0625 Z M 0.796875 0.0625 "/></g></g></g><g fill="#000000" fill-opacity="1"><g transform="translate(35.407274, 19.595682)"><g><path d="M 1.609375 0.0625 C 2.28125 0.0625 2.75 -0.1875 3.0625 -0.609375 C 3.109375 -0.390625 3.15625 -0.25 3.265625 -0.09375 C 3.28125 0 3.359375 0.0625 3.46875 0.0625 C 3.515625 0.0625 3.578125 0.046875 3.640625 0.015625 C 3.765625 -0.03125 3.84375 -0.09375 3.84375 -0.1875 C 3.84375 -0.21875 3.828125 -0.25 3.8125 -0.296875 C 3.71875 -0.421875 3.59375 -0.765625 3.59375 -0.984375 C 3.59375 -1.46875 3.625 -1.71875 3.625 -2.125 C 3.625 -2.984375 3 -3.453125 1.984375 -3.453125 C 1.4375 -3.453125 0.984375 -3.34375 0.65625 -3.15625 C 0.59375 -3.109375 0.546875 -3.0625 0.546875 -2.984375 C 0.546875 -2.9375 0.5625 -2.890625 0.578125 -2.84375 C 0.65625 -2.71875 0.71875 -2.65625 0.796875 -2.65625 C 0.84375 -2.65625 0.890625 -2.671875 0.953125 -2.6875 C 1.25 -2.828125 1.546875 -2.9375 1.9375 -2.9375 C 2.625 -2.9375 3.03125 -2.640625 3.03125 -2.140625 L 3.03125 -1.578125 C 2.75 -1.890625 2.28125 -2.15625 1.71875 -2.15625 C 0.765625 -2.15625 0.28125 -1.703125 0.28125 -1.03125 C 0.28125 -0.359375 0.78125 0.0625 1.609375 0.0625 Z M 0.875 -1.0625 C 0.875 -1.421875 1.15625 -1.6875 1.765625 -1.6875 C 2.3125 -1.6875 2.78125 -1.390625 2.953125 -1.03125 C 2.609375 -0.609375 2.234375 -0.453125 1.734375 -0.453125 C 1.21875 -0.453125 0.875 -0.65625 0.875 -1.0625 Z M 0.875 -1.0625 "/></g></g></g><g fill="#000000" fill-opacity="1"><g transform="translate(39.530459, 19.595682)"><g><path d="M 0.90625 0.0625 C 1.15625 0.0625 1.265625 0.015625 1.234375 -0.25 C 1.15625 -0.828125 1.125 -1.40625 1.125 -2.328125 C 1.125 -3.484375 1.1875 -4.28125 1.21875 -4.875 C 1.234375 -5.0625 1.15625 -5.140625 0.90625 -5.140625 C 0.71875 -5.140625 0.65625 -5.078125 0.640625 -4.90625 C 0.59375 -4.34375 0.546875 -3.5625 0.546875 -2.328125 C 0.546875 -1.5625 0.59375 -0.828125 0.65625 -0.171875 C 0.65625 0 0.71875 0.0625 0.90625 0.0625 Z M 0.90625 0.0625 "/></g></g></g><g clip-path="url(#e81ea7a6f9)"><g clip-path="url(#f55e899bae)"><g clip-path="url(#85257dc9ca)"><path fill="#d9d9d9" d="M 9.445312 1.195312 C 10.023438 1.964844 10.554688 2.769531 11.03125 3.609375 C 11.886719 5.117188 12.660156 6.667969 13.351562 8.257812 C 13.777344 9.222656 13.660156 9.578125 12.730469 10.089844 C 11.847656 10.578125 10.863281 10.648438 9.894531 10.753906 C 8.804688 10.855469 7.710938 10.867188 6.621094 10.785156 C 5.800781 10.734375 5.023438 10.523438 4.285156 10.152344 C 3.371094 9.691406 3.125 9.15625 3.421875 8.164062 C 3.710938 7.195312 4.195312 6.304688 4.660156 5.414062 C 5.398438 4 6.332031 2.703125 7.210938 1.378906 C 7.773438 0.527344 8.679688 0.445312 9.445312 1.195312 Z M 9.445312 1.195312 " fill-opacity="1" fill-rule="nonzero"/></g></g></g><g clip-path="url(#d9b728ea19)"><g clip-path="url(#dc758f6c2e)"><g clip-path="url(#c3c6f1a5f9)"><path fill="#d9d9d9" d="M 45.40625 1.175781 C 46.082031 1.867188 46.707031 2.601562 47.289062 3.371094 C 48.328125 4.761719 49.289062 6.199219 50.179688 7.691406 C 50.722656 8.59375 50.652344 8.957031 49.796875 9.585938 C 48.980469 10.179688 48.011719 10.375 47.0625 10.601562 C 45.996094 10.84375 44.914062 10.992188 43.820312 11.046875 C 43 11.101562 42.203125 10.992188 41.425781 10.714844 C 40.460938 10.375 40.144531 9.871094 40.3125 8.851562 C 40.480469 7.855469 40.847656 6.910156 41.195312 5.96875 C 41.75 4.472656 42.511719 3.066406 43.214844 1.640625 C 43.667969 0.726562 44.554688 0.527344 45.40625 1.175781 Z M 45.40625 1.175781 " fill-opacity="1" fill-rule="nonzero"/></g></g></g></svg>