<svg xmlns="http://www.w3.org/2000/svg" xmlns:xlink="http://www.w3.org/1999/xlink" width="77" zoomAndPan="magnify" viewBox="0 0 57.75 29.25" height="39" preserveAspectRatio="xMidYMid meet" version="1.0"><defs><g/><clipPath id="55dafa327a"><path d="M 0.601562 8.558594 L 56.777344 8.558594 L 56.777344 26.558594 L 0.601562 26.558594 Z M 0.601562 8.558594 " clip-rule="nonzero"/></clipPath><clipPath id="3919250172"><path d="M 47.941406 8.558594 L 0.601562 8.558594 L 0.601562 26.558594 L 47.941406 26.558594 L 56.714844 17.558594 Z M 47.941406 8.558594 " clip-rule="nonzero"/></clipPath><clipPath id="5c0aad80f2"><path d="M 0.601562 0.832031 L 10.835938 0.832031 L 10.835938 11.800781 L 0.601562 11.800781 Z M 0.601562 0.832031 " clip-rule="nonzero"/></clipPath><clipPath id="74ed179ae9"><path d="M 38 0 L 49 0 L 49 12 L 38 12 Z M 38 0 " clip-rule="nonzero"/></clipPath><clipPath id="bd4016a27b"><path d="M 51.066406 8.738281 L 42.667969 14.59375 L 36.394531 5.597656 L 44.792969 -0.261719 Z M 51.066406 8.738281 " clip-rule="nonzero"/></clipPath><clipPath id="6bd4e1404e"><path d="M 51.066406 8.738281 L 42.667969 14.59375 L 36.394531 5.597656 L 44.792969 -0.261719 Z M 51.066406 8.738281 " clip-rule="nonzero"/></clipPath><clipPath id="58e99fb8c7"><path d="M 2.421875 2.574219 L 11.929688 2.574219 L 11.929688 12.078125 L 2.421875 12.078125 Z M 2.421875 2.574219 " clip-rule="nonzero"/></clipPath><clipPath id="77d5af77fe"><path d="M 38 2 L 48 2 L 48 12 L 38 12 Z M 38 2 " clip-rule="nonzero"/></clipPath><clipPath id="fbb5f6743c"><path d="M 49.859375 9.824219 L 42.0625 15.261719 L 36.625 7.464844 L 44.421875 2.027344 Z M 49.859375 9.824219 " clip-rule="nonzero"/></clipPath><clipPath id="f6e2d67b40"><path d="M 49.859375 9.824219 L 42.0625 15.261719 L 36.625 7.464844 L 44.421875 2.027344 Z M 49.859375 9.824219 " clip-rule="nonzero"/></clipPath></defs><g clip-path="url(#55dafa327a)"><g clip-path="url(#3919250172)"><path fill="#d9d9d9" d="M 0.601562 8.558594 L 56.707031 8.558594 L 56.707031 26.558594 L 0.601562 26.558594 Z M 0.601562 8.558594 " fill-opacity="1" fill-rule="nonzero"/></g></g><g clip-path="url(#5c0aad80f2)"><path fill="#d9d9d9" d="M 0.625 9.808594 C 0.761719 8.847656 0.960938 7.894531 1.214844 6.957031 C 1.683594 5.273438 2.234375 3.617188 2.875 1.992188 C 3.261719 1.003906 3.59375 0.832031 4.621094 1.128906 C 5.597656 1.410156 6.351562 2.0625 7.117188 2.679688 C 7.964844 3.382812 8.75 4.152344 9.46875 4.988281 C 10.019531 5.609375 10.421875 6.3125 10.683594 7.101562 C 11.003906 8.082031 10.800781 8.640625 9.882812 9.136719 C 8.988281 9.621094 8.007812 9.90625 7.042969 10.210938 C 5.507812 10.691406 3.917969 10.949219 2.347656 11.269531 C 1.34375 11.472656 0.636719 10.886719 0.625 9.808594 Z M 0.625 9.808594 " fill-opacity="1" fill-rule="nonzero"/></g><g clip-path="url(#74ed179ae9)"><g clip-path="url(#bd4016a27b)"><g clip-path="url(#6bd4e1404e)"><path fill="#d9d9d9" d="M 45.910156 1.386719 C 46.347656 2.257812 46.730469 3.148438 47.058594 4.0625 C 47.636719 5.710938 48.128906 7.386719 48.535156 9.085938 C 48.785156 10.117188 48.609375 10.449219 47.597656 10.792969 C 46.636719 11.121094 45.644531 11.015625 44.664062 10.949219 C 43.566406 10.859375 42.480469 10.675781 41.414062 10.398438 C 40.609375 10.203125 39.871094 9.859375 39.210938 9.363281 C 38.382812 8.742188 38.230469 8.164062 38.703125 7.234375 C 39.160156 6.324219 39.796875 5.53125 40.417969 4.726562 C 41.398438 3.457031 42.554688 2.335938 43.660156 1.175781 C 44.371094 0.433594 45.28125 0.507812 45.910156 1.386719 Z M 45.910156 1.386719 " fill-opacity="1" fill-rule="nonzero"/></g></g></g><g clip-path="url(#58e99fb8c7)"><path fill="#d9d9d9" d="M 2.449219 10.808594 C 2.574219 9.925781 2.753906 9.054688 2.988281 8.191406 C 3.417969 6.648438 3.925781 5.128906 4.511719 3.636719 C 4.867188 2.730469 5.171875 2.574219 6.113281 2.847656 C 7.011719 3.105469 7.703125 3.703125 8.402344 4.269531 C 9.183594 4.914062 9.902344 5.617188 10.5625 6.386719 C 11.066406 6.957031 11.4375 7.601562 11.675781 8.324219 C 11.972656 9.226562 11.78125 9.738281 10.941406 10.191406 C 10.121094 10.636719 9.222656 10.898438 8.335938 11.179688 C 6.925781 11.621094 5.472656 11.855469 4.027344 12.148438 C 3.105469 12.335938 2.460938 11.800781 2.449219 10.808594 Z M 2.449219 10.808594 " fill-opacity="1" fill-rule="nonzero"/></g><g clip-path="url(#77d5af77fe)"><g clip-path="url(#fbb5f6743c)"><g clip-path="url(#f6e2d67b40)"><path fill="#d9d9d9" d="M 45.128906 3.085938 C 45.53125 3.878906 45.882812 4.699219 46.179688 5.539062 C 46.714844 7.050781 47.164062 8.589844 47.539062 10.148438 C 47.765625 11.09375 47.605469 11.394531 46.675781 11.710938 C 45.792969 12.011719 44.882812 11.917969 43.984375 11.855469 C 42.976562 11.773438 41.984375 11.605469 41.003906 11.351562 C 40.265625 11.171875 39.589844 10.855469 38.980469 10.398438 C 38.222656 9.832031 38.085938 9.300781 38.515625 8.449219 C 38.9375 7.613281 39.519531 6.882812 40.089844 6.148438 C 40.992188 4.980469 42.050781 3.953125 43.066406 2.886719 C 43.714844 2.207031 44.554688 2.277344 45.128906 3.085938 Z M 45.128906 3.085938 " fill-opacity="1" fill-rule="nonzero"/></g></g></g><g fill="#000000" fill-opacity="1"><g transform="translate(10.814031, 19.711481)"><g><path d="M 2.546875 0.0625 C 3.875 0.0625 4.65625 -0.875 4.65625 -2.125 C 4.65625 -3.09375 4.28125 -3.75 3.46875 -4.0625 C 3.5 -4.109375 3.53125 -4.171875 3.546875 -4.25 C 3.546875 -4.28125 3.546875 -4.328125 3.546875 -4.34375 C 3.546875 -4.484375 3.5 -4.53125 3.375 -4.546875 C 3.203125 -4.625 2.953125 -4.671875 2.671875 -4.671875 C 1.25 -4.671875 0.359375 -3.765625 0.359375 -2.28125 C 0.359375 -0.90625 1.046875 0.0625 2.546875 0.0625 Z M 0.953125 -2.296875 C 0.953125 -3.421875 1.578125 -4.109375 2.609375 -4.109375 C 2.71875 -4.109375 2.828125 -4.109375 2.921875 -4.09375 C 2.890625 -4.0625 2.875 -4 2.84375 -3.9375 C 2.828125 -3.875 2.828125 -3.828125 2.828125 -3.78125 C 2.828125 -3.671875 2.875 -3.625 2.953125 -3.59375 C 3.75 -3.375 4.0625 -2.9375 4.0625 -2.125 C 4.0625 -1.109375 3.453125 -0.46875 2.546875 -0.46875 C 1.484375 -0.46875 0.953125 -1.15625 0.953125 -2.296875 Z M 0.953125 -2.296875 "/></g></g></g><g fill="#000000" fill-opacity="1"><g transform="translate(15.830669, 19.711481)"><g><path d="M 1.75 0.0625 C 1.875 0.0625 2 0.03125 2.109375 -0.046875 C 3.015625 -0.734375 3.53125 -1.828125 3.578125 -3.15625 C 3.578125 -3.28125 3.515625 -3.359375 3.296875 -3.359375 C 3.109375 -3.359375 3.015625 -3.28125 3.015625 -3.171875 C 2.953125 -2 2.46875 -1.046875 1.78125 -0.453125 C 1.203125 -1.078125 0.828125 -2.03125 0.84375 -3.171875 C 0.84375 -3.296875 0.734375 -3.359375 0.546875 -3.359375 C 0.375 -3.359375 0.28125 -3.296875 0.28125 -3.15625 C 0.25 -1.84375 0.625 -0.78125 1.40625 -0.046875 C 1.5 0.03125 1.625 0.0625 1.75 0.0625 Z M 1.75 0.0625 "/></g></g></g><g fill="#000000" fill-opacity="1"><g transform="translate(19.695196, 19.711481)"><g><path d="M 2.03125 0.0625 C 2.59375 0.0625 2.953125 -0.0625 3.296875 -0.265625 C 3.375 -0.3125 3.421875 -0.375 3.421875 -0.453125 C 3.421875 -0.5 3.421875 -0.546875 3.390625 -0.59375 C 3.328125 -0.703125 3.25 -0.75 3.1875 -0.75 C 3.15625 -0.75 3.125 -0.734375 3.09375 -0.71875 C 2.796875 -0.53125 2.578125 -0.4375 2.171875 -0.4375 C 1.390625 -0.4375 0.953125 -0.84375 0.921875 -1.578125 C 1.265625 -1.328125 1.671875 -1.1875 2.203125 -1.1875 C 3.0625 -1.1875 3.484375 -1.609375 3.484375 -2.25 C 3.484375 -2.875 3 -3.359375 2.015625 -3.359375 C 0.90625 -3.359375 0.359375 -2.65625 0.359375 -1.65625 C 0.359375 -0.578125 0.921875 0.0625 2.03125 0.0625 Z M 0.984375 -2.078125 C 1.125 -2.5625 1.5 -2.859375 2.0625 -2.859375 C 2.640625 -2.859375 2.921875 -2.578125 2.921875 -2.21875 C 2.921875 -1.90625 2.625 -1.703125 2.09375 -1.703125 C 1.640625 -1.703125 1.28125 -1.84375 0.984375 -2.078125 Z M 0.984375 -2.078125 "/></g></g></g><g fill="#000000" fill-opacity="1"><g transform="translate(23.533386, 19.711481)"><g><path d="M 0.84375 0.0625 C 1.046875 0.0625 1.140625 -0.015625 1.140625 -0.171875 C 1.125 -0.578125 1.09375 -1.46875 1.09375 -1.671875 C 1.09375 -2.625 1.640625 -2.828125 1.96875 -2.828125 C 2.1875 -2.828125 2.375 -2.78125 2.53125 -2.6875 C 2.5625 -2.671875 2.59375 -2.65625 2.625 -2.65625 C 2.703125 -2.65625 2.78125 -2.71875 2.828125 -2.796875 C 2.875 -2.875 2.890625 -2.9375 2.890625 -2.984375 C 2.890625 -3.046875 2.875 -3.078125 2.8125 -3.125 C 2.640625 -3.265625 2.40625 -3.34375 2.078125 -3.34375 C 1.75 -3.34375 1.359375 -3.1875 1.109375 -2.796875 L 1.140625 -3.09375 C 1.140625 -3.25 1.078125 -3.34375 0.8125 -3.34375 C 0.640625 -3.34375 0.578125 -3.28125 0.5625 -3.09375 C 0.546875 -2.65625 0.53125 -2.453125 0.53125 -1.859375 C 0.53125 -1.171875 0.546875 -0.640625 0.5625 -0.171875 C 0.5625 -0.046875 0.59375 0.0625 0.84375 0.0625 Z M 0.84375 0.0625 "/></g></g></g><g fill="#000000" fill-opacity="1"><g transform="translate(26.614475, 19.711481)"><g><path d="M 1.75 0.0625 C 1.875 0.0625 2 0.03125 2.109375 -0.046875 C 3.015625 -0.734375 3.53125 -1.828125 3.578125 -3.15625 C 3.578125 -3.28125 3.515625 -3.359375 3.296875 -3.359375 C 3.109375 -3.359375 3.015625 -3.28125 3.015625 -3.171875 C 2.953125 -2 2.46875 -1.046875 1.78125 -0.453125 C 1.203125 -1.078125 0.828125 -2.03125 0.84375 -3.171875 C 0.84375 -3.296875 0.734375 -3.359375 0.546875 -3.359375 C 0.375 -3.359375 0.28125 -3.296875 0.28125 -3.15625 C 0.25 -1.84375 0.625 -0.78125 1.40625 -0.046875 C 1.5 0.03125 1.625 0.0625 1.75 0.0625 Z M 1.75 0.0625 "/></g></g></g><g fill="#000000" fill-opacity="1"><g transform="translate(30.479002, 19.711481)"><g><path d="M 0.8125 0.0625 C 0.984375 0.0625 1.078125 0 1.078125 -0.1875 C 1.09375 -0.578125 1.140625 -1.421875 1.140625 -1.796875 C 1.15625 -2 1.15625 -2.203125 1.15625 -2.421875 C 1.15625 -2.671875 1.15625 -2.921875 1.125 -3.15625 C 1.125 -3.296875 1.03125 -3.359375 0.875 -3.359375 C 0.625 -3.359375 0.5625 -3.25 0.5625 -3.0625 C 0.578125 -2.859375 0.578125 -2.65625 0.578125 -2.453125 C 0.578125 -2.15625 0.578125 -1.859375 0.5625 -1.578125 C 0.546875 -1.109375 0.53125 -0.578125 0.5 -0.1875 C 0.5 -0.015625 0.546875 0.0625 0.8125 0.0625 Z M 0.53125 -4.515625 C 0.53125 -4.34375 0.59375 -4.25 0.859375 -4.25 C 1.09375 -4.25 1.1875 -4.296875 1.203125 -4.484375 C 1.21875 -4.5625 1.21875 -4.640625 1.21875 -4.765625 C 1.21875 -4.90625 1.125 -5 0.859375 -5 C 0.625 -5 0.53125 -4.921875 0.53125 -4.734375 C 0.53125 -4.65625 0.515625 -4.609375 0.53125 -4.515625 Z M 0.53125 -4.515625 "/></g></g></g><g fill="#000000" fill-opacity="1"><g transform="translate(32.203887, 19.711481)"><g><path d="M 2.03125 0.0625 C 2.59375 0.0625 2.953125 -0.0625 3.296875 -0.265625 C 3.375 -0.3125 3.421875 -0.375 3.421875 -0.453125 C 3.421875 -0.5 3.421875 -0.546875 3.390625 -0.59375 C 3.328125 -0.703125 3.25 -0.75 3.1875 -0.75 C 3.15625 -0.75 3.125 -0.734375 3.09375 -0.71875 C 2.796875 -0.53125 2.578125 -0.4375 2.171875 -0.4375 C 1.390625 -0.4375 0.953125 -0.84375 0.921875 -1.578125 C 1.265625 -1.328125 1.671875 -1.1875 2.203125 -1.1875 C 3.0625 -1.1875 3.484375 -1.609375 3.484375 -2.25 C 3.484375 -2.875 3 -3.359375 2.015625 -3.359375 C 0.90625 -3.359375 0.359375 -2.65625 0.359375 -1.65625 C 0.359375 -0.578125 0.921875 0.0625 2.03125 0.0625 Z M 0.984375 -2.078125 C 1.125 -2.5625 1.5 -2.859375 2.0625 -2.859375 C 2.640625 -2.859375 2.921875 -2.578125 2.921875 -2.21875 C 2.921875 -1.90625 2.625 -1.703125 2.09375 -1.703125 C 1.640625 -1.703125 1.28125 -1.84375 0.984375 -2.078125 Z M 0.984375 -2.078125 "/></g></g></g><g fill="#000000" fill-opacity="1"><g transform="translate(36.042078, 19.711481)"><g><path d="M 1.421875 0.0625 C 1.546875 0.0625 1.671875 0 1.78125 -0.09375 C 2.078125 -0.375 2.53125 -1.6875 2.765625 -2.484375 C 2.96875 -1.703125 3.375 -0.375 3.65625 -0.09375 C 3.75 0 3.875 0.0625 4 0.0625 C 4.125 0.0625 4.265625 0.015625 4.375 -0.09375 C 4.953125 -0.640625 5.390625 -1.9375 5.390625 -3.15625 C 5.390625 -3.328125 5.28125 -3.359375 5.09375 -3.359375 C 4.890625 -3.359375 4.828125 -3.296875 4.828125 -3.15625 C 4.828125 -2.25 4.40625 -0.90625 4.046875 -0.5 C 3.796875 -0.890625 3.390625 -2.296875 3.046875 -3.21875 C 2.96875 -3.296875 2.890625 -3.34375 2.796875 -3.34375 C 2.6875 -3.34375 2.609375 -3.296875 2.546875 -3.21875 C 2.171875 -2.328125 1.71875 -0.921875 1.453125 -0.5625 C 1.1875 -0.953125 0.9375 -2.265625 0.9375 -3.171875 C 0.9375 -3.3125 0.8125 -3.359375 0.640625 -3.359375 C 0.453125 -3.359375 0.359375 -3.296875 0.359375 -3.15625 C 0.359375 -1.984375 0.625 -0.5625 1.046875 -0.125 C 1.140625 0 1.28125 0.0625 1.421875 0.0625 Z M 1.421875 0.0625 "/></g></g></g></svg>