<svg xmlns="http://www.w3.org/2000/svg" xmlns:xlink="http://www.w3.org/1999/xlink" width="81" zoomAndPan="magnify" viewBox="0 0 60.75 31.5" height="42" preserveAspectRatio="xMidYMid meet" version="1.0"><defs><g/><clipPath id="213fbd1a82"><path d="M 2.875 9.425781 L 59.53125 9.425781 L 59.53125 30.785156 L 2.875 30.785156 Z M 2.875 9.425781 " clip-rule="nonzero"/></clipPath><clipPath id="f6e23a907b"><path d="M 50.671875 9.425781 L 2.875 9.425781 L 2.875 30.785156 L 50.671875 30.785156 L 59.53125 20.105469 Z M 50.671875 9.425781 " clip-rule="nonzero"/></clipPath><clipPath id="ccca5e0790"><path d="M 40 0 L 51 0 L 51 12 L 40 12 Z M 40 0 " clip-rule="nonzero"/></clipPath><clipPath id="0087364611"><path d="M 53.085938 7.902344 L 45.492188 14.914062 L 37.980469 6.777344 L 45.574219 -0.234375 Z M 53.085938 7.902344 " clip-rule="nonzero"/></clipPath><clipPath id="198fb21b22"><path d="M 53.085938 7.902344 L 45.492188 14.914062 L 37.980469 6.777344 L 45.574219 -0.234375 Z M 53.085938 7.902344 " clip-rule="nonzero"/></clipPath><clipPath id="98571975d7"><path d="M 3 2 L 14 2 L 14 12 L 3 12 Z M 3 2 " clip-rule="nonzero"/></clipPath><clipPath id="25b9141530"><path d="M 4.492188 14.480469 L 0.429688 4.976562 L 10.609375 0.621094 L 14.675781 10.125 Z M 4.492188 14.480469 " clip-rule="nonzero"/></clipPath><clipPath id="0799bd97c6"><path d="M 4.492188 14.480469 L 0.429688 4.976562 L 10.609375 0.621094 L 14.675781 10.125 Z M 4.492188 14.480469 " clip-rule="nonzero"/></clipPath></defs><g clip-path="url(#213fbd1a82)"><g clip-path="url(#f6e23a907b)"><path fill="#d9d9d9" d="M 2.875 9.425781 L 59.53125 9.425781 L 59.53125 30.785156 L 2.875 30.785156 Z M 2.875 9.425781 " fill-opacity="1" fill-rule="nonzero"/></g></g><g fill="#000000" fill-opacity="1"><g transform="translate(17.385761, 21.237145)"><g><path d="M 0.484375 -4.859375 C 0.6875 -4.875 1.28125 -4.921875 1.984375 -4.90625 C 1.921875 -4.234375 1.859375 -3.40625 1.859375 -2.578125 C 1.859375 -1.78125 1.890625 -0.890625 1.921875 -0.203125 C 1.9375 0.015625 2.046875 0.078125 2.234375 0.078125 C 2.578125 0.078125 2.65625 -0.078125 2.640625 -0.234375 C 2.59375 -0.96875 2.578125 -1.734375 2.578125 -2.59375 C 2.578125 -3.4375 2.640625 -4.25 2.6875 -4.90625 C 3.359375 -4.890625 3.96875 -4.859375 4.34375 -4.828125 C 4.625 -4.8125 4.671875 -4.96875 4.671875 -5.1875 C 4.671875 -5.375 4.609375 -5.46875 4.421875 -5.484375 C 4.0625 -5.515625 3.265625 -5.546875 2.359375 -5.5625 C 2.21875 -5.5625 2.078125 -5.5625 1.9375 -5.5625 C 1.21875 -5.5625 0.65625 -5.53125 0.40625 -5.5 C 0.203125 -5.484375 0.15625 -5.390625 0.15625 -5.21875 C 0.15625 -4.953125 0.234375 -4.828125 0.484375 -4.859375 Z M 0.484375 -4.859375 "/></g></g></g><g fill="#000000" fill-opacity="1"><g transform="translate(22.098331, 21.237145)"><g><path d="M 1.859375 0.078125 C 2.65625 0.078125 3.203125 -0.21875 3.5625 -0.703125 C 3.609375 -0.453125 3.671875 -0.296875 3.796875 -0.109375 C 3.8125 0.015625 3.90625 0.078125 4.03125 0.078125 C 4.09375 0.078125 4.171875 0.0625 4.234375 0.03125 C 4.390625 -0.046875 4.46875 -0.109375 4.46875 -0.21875 C 4.46875 -0.25 4.453125 -0.296875 4.4375 -0.34375 C 4.328125 -0.484375 4.1875 -0.890625 4.1875 -1.140625 C 4.1875 -1.703125 4.21875 -2.015625 4.21875 -2.484375 C 4.21875 -3.46875 3.484375 -4.015625 2.3125 -4.015625 C 1.671875 -4.015625 1.15625 -3.890625 0.765625 -3.671875 C 0.6875 -3.625 0.640625 -3.5625 0.640625 -3.46875 C 0.640625 -3.421875 0.640625 -3.359375 0.671875 -3.3125 C 0.75 -3.15625 0.828125 -3.09375 0.921875 -3.09375 C 0.984375 -3.09375 1.046875 -3.109375 1.109375 -3.140625 C 1.453125 -3.296875 1.796875 -3.421875 2.25 -3.421875 C 3.0625 -3.421875 3.515625 -3.078125 3.515625 -2.484375 L 3.515625 -1.828125 C 3.203125 -2.203125 2.65625 -2.5 2.015625 -2.5 C 0.890625 -2.5 0.328125 -1.984375 0.328125 -1.203125 C 0.328125 -0.421875 0.90625 0.078125 1.859375 0.078125 Z M 1.015625 -1.25 C 1.015625 -1.65625 1.34375 -1.96875 2.046875 -1.96875 C 2.6875 -1.96875 3.234375 -1.625 3.4375 -1.203125 C 3.03125 -0.703125 2.59375 -0.515625 2.03125 -0.515625 C 1.40625 -0.515625 1.015625 -0.765625 1.015625 -1.25 Z M 1.015625 -1.25 "/></g></g></g><g fill="#000000" fill-opacity="1"><g transform="translate(26.889566, 21.237145)"><g><path d="M 1.953125 0.078125 C 3.265625 0.078125 3.734375 -0.359375 3.734375 -1.078125 C 3.734375 -1.6875 3.46875 -2.125 2.359375 -2.265625 C 1.625 -2.359375 1.296875 -2.5 1.296875 -2.890625 C 1.296875 -3.234375 1.5625 -3.40625 2.078125 -3.40625 C 2.515625 -3.40625 2.90625 -3.3125 3.203125 -3.09375 C 3.25 -3.078125 3.296875 -3.0625 3.34375 -3.0625 C 3.421875 -3.0625 3.515625 -3.109375 3.59375 -3.234375 C 3.640625 -3.3125 3.65625 -3.375 3.65625 -3.4375 C 3.65625 -3.5 3.625 -3.5625 3.546875 -3.609375 C 3.21875 -3.84375 2.765625 -4.015625 2.0625 -4.015625 C 1.125 -4.015625 0.609375 -3.65625 0.609375 -2.890625 C 0.609375 -2.125 1.109375 -1.796875 2.109375 -1.6875 C 2.890625 -1.59375 3.0625 -1.359375 3.0625 -1.078125 C 3.0625 -0.6875 2.78125 -0.515625 2.046875 -0.515625 C 1.578125 -0.515625 1.21875 -0.609375 0.796875 -0.78125 C 0.765625 -0.796875 0.71875 -0.8125 0.6875 -0.8125 C 0.59375 -0.8125 0.5 -0.75 0.421875 -0.578125 C 0.40625 -0.515625 0.390625 -0.46875 0.390625 -0.421875 C 0.390625 -0.3125 0.453125 -0.25 0.53125 -0.203125 C 0.921875 -0.015625 1.34375 0.078125 1.953125 0.078125 Z M 1.953125 0.078125 "/></g></g></g><g fill="#000000" fill-opacity="1"><g transform="translate(31.075023, 21.237145)"><g><path d="M 0.9375 0.078125 C 1.1875 0.09375 1.296875 0.046875 1.328125 -0.25 C 1.375 -0.6875 1.40625 -1.09375 1.4375 -1.609375 C 1.703125 -1.265625 2.015625 -0.953125 2.390625 -0.6875 C 2.859375 -0.359375 3.390625 -0.125 4 0.0625 C 4.046875 0.0625 4.09375 0.078125 4.125 0.078125 C 4.265625 0.078125 4.375 0 4.421875 -0.1875 C 4.4375 -0.234375 4.4375 -0.296875 4.4375 -0.34375 C 4.4375 -0.46875 4.375 -0.5625 4.25 -0.59375 C 3.765625 -0.734375 3.296875 -0.90625 2.859375 -1.1875 C 2.5625 -1.375 2.3125 -1.59375 2.078125 -1.84375 C 2.390625 -1.9375 2.671875 -2.0625 2.921875 -2.1875 C 3.46875 -2.484375 3.84375 -2.828125 4.359375 -3.390625 C 4.4375 -3.46875 4.5 -3.53125 4.5 -3.625 C 4.5 -3.6875 4.484375 -3.765625 4.421875 -3.84375 C 4.34375 -3.953125 4.265625 -4.015625 4.171875 -4.015625 C 4.109375 -4.015625 4.03125 -3.984375 3.96875 -3.90625 C 3.5 -3.40625 3.046875 -3.03125 2.59375 -2.765625 C 2.1875 -2.546875 1.828125 -2.4375 1.46875 -2.34375 L 1.46875 -2.65625 C 1.46875 -4.03125 1.4375 -5.078125 1.390625 -5.734375 C 1.375 -5.921875 1.3125 -6 1.109375 -6 C 0.796875 -6 0.703125 -5.921875 0.703125 -5.671875 C 0.734375 -4.984375 0.78125 -4.078125 0.78125 -2.65625 C 0.78125 -1.796875 0.71875 -1 0.640625 -0.28125 C 0.609375 -0.0625 0.671875 0.046875 0.9375 0.078125 Z M 0.9375 0.078125 "/></g></g></g><g fill="#000000" fill-opacity="1"><g transform="translate(35.842658, 21.237145)"><g><path d="M 1.953125 0.078125 C 3.265625 0.078125 3.734375 -0.359375 3.734375 -1.078125 C 3.734375 -1.6875 3.46875 -2.125 2.359375 -2.265625 C 1.625 -2.359375 1.296875 -2.5 1.296875 -2.890625 C 1.296875 -3.234375 1.5625 -3.40625 2.078125 -3.40625 C 2.515625 -3.40625 2.90625 -3.3125 3.203125 -3.09375 C 3.25 -3.078125 3.296875 -3.0625 3.34375 -3.0625 C 3.421875 -3.0625 3.515625 -3.109375 3.59375 -3.234375 C 3.640625 -3.3125 3.65625 -3.375 3.65625 -3.4375 C 3.65625 -3.5 3.625 -3.5625 3.546875 -3.609375 C 3.21875 -3.84375 2.765625 -4.015625 2.0625 -4.015625 C 1.125 -4.015625 0.609375 -3.65625 0.609375 -2.890625 C 0.609375 -2.125 1.109375 -1.796875 2.109375 -1.6875 C 2.890625 -1.59375 3.0625 -1.359375 3.0625 -1.078125 C 3.0625 -0.6875 2.78125 -0.515625 2.046875 -0.515625 C 1.578125 -0.515625 1.21875 -0.609375 0.796875 -0.78125 C 0.765625 -0.796875 0.71875 -0.8125 0.6875 -0.8125 C 0.59375 -0.8125 0.5 -0.75 0.421875 -0.578125 C 0.40625 -0.515625 0.390625 -0.46875 0.390625 -0.421875 C 0.390625 -0.3125 0.453125 -0.25 0.53125 -0.203125 C 0.921875 -0.015625 1.34375 0.078125 1.953125 0.078125 Z M 1.953125 0.078125 "/></g></g></g><g clip-path="url(#ccca5e0790)"><g clip-path="url(#0087364611)"><g clip-path="url(#198fb21b22)"><path fill="#d9d9d9" d="M 46.917969 1.261719 C 47.476562 2.066406 47.984375 2.90625 48.4375 3.777344 C 49.242188 5.347656 49.964844 6.957031 50.605469 8.601562 C 50.996094 9.597656 50.867188 9.953125 49.898438 10.433594 C 48.984375 10.894531 47.976562 10.929688 46.988281 10.992188 C 45.875 11.054688 44.765625 11.023438 43.660156 10.890625 C 42.828125 10.808594 42.046875 10.5625 41.3125 10.15625 C 40.402344 9.648438 40.171875 9.09375 40.511719 8.097656 C 40.847656 7.125 41.375 6.242188 41.882812 5.355469 C 42.691406 3.949219 43.695312 2.667969 44.640625 1.355469 C 45.25 0.515625 46.171875 0.464844 46.917969 1.261719 Z M 46.917969 1.261719 " fill-opacity="1" fill-rule="nonzero"/></g></g></g><g clip-path="url(#98571975d7)"><g clip-path="url(#25b9141530)"><g clip-path="url(#0799bd97c6)"><path fill="#d9d9d9" d="M 12.816406 10.890625 C 11.867188 11.148438 10.90625 11.34375 9.933594 11.476562 C 8.1875 11.710938 6.429688 11.855469 4.664062 11.90625 C 3.59375 11.941406 3.304688 11.699219 3.171875 10.628906 C 3.046875 9.609375 3.351562 8.652344 3.621094 7.699219 C 3.9375 6.628906 4.339844 5.59375 4.832031 4.597656 C 5.1875 3.839844 5.683594 3.183594 6.308594 2.632812 C 7.09375 1.941406 7.691406 1.910156 8.515625 2.566406 C 9.320312 3.207031 9.976562 4 10.644531 4.777344 C 11.699219 6.011719 12.570312 7.382812 13.488281 8.714844 C 14.074219 9.566406 13.8125 10.453125 12.816406 10.890625 Z M 12.816406 10.890625 " fill-opacity="1" fill-rule="nonzero"/></g></g></g></svg>