<svg xmlns="http://www.w3.org/2000/svg" xmlns:xlink="http://www.w3.org/1999/xlink" width="81" zoomAndPan="magnify" viewBox="0 0 60.75 27.749998" height="37" preserveAspectRatio="xMidYMid meet" version="1.0"><defs><g/><clipPath id="cdebd1d6e0"><path d="M 2.6875 9.488281 L 59.75 9.488281 L 59.75 27.324219 L 2.6875 27.324219 Z M 2.6875 9.488281 " clip-rule="nonzero"/></clipPath><clipPath id="5ea1202997"><path d="M 50.808594 9.488281 L 2.6875 9.488281 L 2.6875 27.324219 L 50.808594 27.324219 L 59.726562 18.40625 Z M 50.808594 9.488281 " clip-rule="nonzero"/></clipPath><clipPath id="9160bccac9"><path d="M 40 0 L 51 0 L 51 12 L 40 12 Z M 40 0 " clip-rule="nonzero"/></clipPath><clipPath id="5eb170cbf8"><path d="M 53.242188 7.957031 L 45.59375 15.015625 L 38.03125 6.824219 L 45.679688 -0.234375 Z M 53.242188 7.957031 " clip-rule="nonzero"/></clipPath><clipPath id="4259ee888f"><path d="M 53.242188 7.957031 L 45.59375 15.015625 L 38.03125 6.824219 L 45.679688 -0.234375 Z M 53.242188 7.957031 " clip-rule="nonzero"/></clipPath><clipPath id="c67719c5e2"><path d="M 2 2 L 14 2 L 14 12 L 2 12 Z M 2 2 " clip-rule="nonzero"/></clipPath><clipPath id="5d8c0df8a7"><path d="M 4.316406 14.578125 L 0.226562 5.011719 L 10.476562 0.625 L 14.566406 10.195312 Z M 4.316406 14.578125 " clip-rule="nonzero"/></clipPath><clipPath id="47e7e41d09"><path d="M 4.316406 14.578125 L 0.226562 5.011719 L 10.476562 0.625 L 14.566406 10.195312 Z M 4.316406 14.578125 " clip-rule="nonzero"/></clipPath><clipPath id="90b4ebfc7f"><path d="M 3.882812 4.285156 L 13.546875 4.285156 L 13.546875 13.949219 L 3.882812 13.949219 Z M 3.882812 4.285156 " clip-rule="nonzero"/></clipPath><clipPath id="0eef50d7bd"><path d="M 41 3 L 51 3 L 51 14 L 41 14 Z M 41 3 " clip-rule="nonzero"/></clipPath><clipPath id="a9504f785a"><path d="M 53.160156 11.007812 L 45.234375 16.535156 L 39.707031 8.609375 L 47.632812 3.082031 Z M 53.160156 11.007812 " clip-rule="nonzero"/></clipPath><clipPath id="97ae624118"><path d="M 53.160156 11.007812 L 45.234375 16.535156 L 39.707031 8.609375 L 47.632812 3.082031 Z M 53.160156 11.007812 " clip-rule="nonzero"/></clipPath></defs><g clip-path="url(#cdebd1d6e0)"><g clip-path="url(#5ea1202997)"><path fill="#ff914d" d="M 2.6875 9.488281 L 59.75 9.488281 L 59.75 27.324219 L 2.6875 27.324219 Z M 2.6875 9.488281 " fill-opacity="1" fill-rule="nonzero"/></g></g><g fill="#000000" fill-opacity="1"><g transform="translate(18.249757, 20.638308)"><g><path d="M 4.40625 -5.65625 L 4.40625 -5.09375 L 2.640625 -5.09375 L 2.640625 0 L 1.984375 0 L 1.984375 -5.09375 L 0.203125 -5.09375 L 0.203125 -5.65625 Z M 4.40625 -5.65625 "/></g></g></g><g fill="#000000" fill-opacity="1"><g transform="translate(22.867662, 20.638308)"><g><path d="M 1.765625 0.078125 C 1.335938 0.078125 1.003906 -0.03125 0.765625 -0.25 C 0.535156 -0.46875 0.421875 -0.78125 0.421875 -1.1875 C 0.421875 -1.4375 0.472656 -1.648438 0.578125 -1.828125 C 0.679688 -2.003906 0.84375 -2.144531 1.0625 -2.25 C 1.28125 -2.363281 1.566406 -2.445312 1.921875 -2.5 C 2.234375 -2.550781 2.46875 -2.609375 2.625 -2.671875 C 2.789062 -2.742188 2.898438 -2.816406 2.953125 -2.890625 C 3.003906 -2.972656 3.03125 -3.078125 3.03125 -3.203125 C 3.03125 -3.390625 2.960938 -3.535156 2.828125 -3.640625 C 2.703125 -3.742188 2.492188 -3.796875 2.203125 -3.796875 C 1.921875 -3.796875 1.679688 -3.742188 1.484375 -3.640625 C 1.285156 -3.535156 1.101562 -3.375 0.9375 -3.15625 L 0.859375 -3.15625 L 0.5625 -3.59375 C 0.738281 -3.820312 0.960938 -4.003906 1.234375 -4.140625 C 1.515625 -4.273438 1.835938 -4.34375 2.203125 -4.34375 C 2.703125 -4.34375 3.070312 -4.234375 3.3125 -4.015625 C 3.550781 -3.796875 3.671875 -3.492188 3.671875 -3.109375 L 3.671875 -0.84375 C 3.671875 -0.601562 3.769531 -0.484375 3.96875 -0.484375 C 4.03125 -0.484375 4.09375 -0.492188 4.15625 -0.515625 L 4.21875 -0.5 L 4.296875 -0.0625 C 4.242188 -0.03125 4.175781 -0.0078125 4.09375 0 C 4.019531 0.0195312 3.945312 0.03125 3.875 0.03125 C 3.632812 0.03125 3.453125 -0.0195312 3.328125 -0.125 C 3.210938 -0.226562 3.140625 -0.378906 3.109375 -0.578125 L 3.03125 -0.59375 C 2.90625 -0.363281 2.738281 -0.191406 2.53125 -0.078125 C 2.332031 0.0234375 2.078125 0.078125 1.765625 0.078125 Z M 1.90625 -0.421875 C 2.132812 -0.421875 2.335938 -0.472656 2.515625 -0.578125 C 2.691406 -0.691406 2.828125 -0.847656 2.921875 -1.046875 C 3.015625 -1.242188 3.0625 -1.472656 3.0625 -1.734375 L 3.0625 -2.28125 L 2.984375 -2.296875 C 2.890625 -2.222656 2.769531 -2.164062 2.625 -2.125 C 2.488281 -2.082031 2.300781 -2.039062 2.0625 -2 C 1.8125 -1.96875 1.613281 -1.914062 1.46875 -1.84375 C 1.320312 -1.78125 1.21875 -1.691406 1.15625 -1.578125 C 1.09375 -1.472656 1.0625 -1.34375 1.0625 -1.1875 C 1.0625 -0.9375 1.132812 -0.742188 1.28125 -0.609375 C 1.4375 -0.484375 1.644531 -0.421875 1.90625 -0.421875 Z M 1.90625 -0.421875 "/></g></g></g><g fill="#000000" fill-opacity="1"><g transform="translate(27.280585, 20.638308)"><g><path d="M 1.953125 0.078125 C 1.679688 0.078125 1.429688 0.046875 1.203125 -0.015625 C 0.972656 -0.0859375 0.78125 -0.1875 0.625 -0.3125 C 0.46875 -0.4375 0.359375 -0.578125 0.296875 -0.734375 L 0.65625 -1.125 L 0.75 -1.125 C 0.882812 -0.90625 1.050781 -0.742188 1.25 -0.640625 C 1.445312 -0.535156 1.679688 -0.484375 1.953125 -0.484375 C 2.265625 -0.484375 2.5 -0.539062 2.65625 -0.65625 C 2.820312 -0.78125 2.90625 -0.957031 2.90625 -1.1875 C 2.90625 -1.351562 2.851562 -1.488281 2.75 -1.59375 C 2.65625 -1.707031 2.5 -1.789062 2.28125 -1.84375 L 1.5625 -2.015625 C 1.175781 -2.109375 0.894531 -2.253906 0.71875 -2.453125 C 0.539062 -2.660156 0.453125 -2.910156 0.453125 -3.203125 C 0.453125 -3.441406 0.507812 -3.644531 0.625 -3.8125 C 0.75 -3.976562 0.921875 -4.109375 1.140625 -4.203125 C 1.367188 -4.296875 1.632812 -4.34375 1.9375 -4.34375 C 2.332031 -4.34375 2.640625 -4.285156 2.859375 -4.171875 C 3.085938 -4.066406 3.265625 -3.914062 3.390625 -3.71875 L 3.03125 -3.375 L 2.953125 -3.375 C 2.816406 -3.53125 2.664062 -3.644531 2.5 -3.71875 C 2.34375 -3.789062 2.15625 -3.828125 1.9375 -3.828125 C 1.65625 -3.828125 1.4375 -3.773438 1.28125 -3.671875 C 1.132812 -3.566406 1.0625 -3.421875 1.0625 -3.234375 C 1.0625 -3.054688 1.113281 -2.914062 1.21875 -2.8125 C 1.332031 -2.707031 1.519531 -2.625 1.78125 -2.5625 L 2.484375 -2.390625 C 2.859375 -2.304688 3.128906 -2.160156 3.296875 -1.953125 C 3.460938 -1.742188 3.546875 -1.488281 3.546875 -1.1875 C 3.546875 -0.9375 3.484375 -0.710938 3.359375 -0.515625 C 3.242188 -0.328125 3.066406 -0.179688 2.828125 -0.078125 C 2.585938 0.0234375 2.296875 0.078125 1.953125 0.078125 Z M 1.953125 0.078125 "/></g></g></g><g fill="#000000" fill-opacity="1"><g transform="translate(31.225528, 20.638308)"><g><path d="M 0.75 0 L 0.75 -5.984375 L 1.375 -5.984375 L 1.375 -2.484375 L 1.484375 -2.484375 L 3.0625 -4.265625 L 3.71875 -4.265625 L 3.71875 -4.171875 L 2.03125 -2.265625 L 3.890625 -0.09375 L 3.890625 0 L 3.1875 0 L 1.484375 -1.96875 L 1.375 -1.96875 L 1.375 0 Z M 0.75 0 "/></g></g></g><g fill="#000000" fill-opacity="1"><g transform="translate(35.193678, 20.638308)"><g><path d="M 1.953125 0.078125 C 1.679688 0.078125 1.429688 0.046875 1.203125 -0.015625 C 0.972656 -0.0859375 0.78125 -0.1875 0.625 -0.3125 C 0.46875 -0.4375 0.359375 -0.578125 0.296875 -0.734375 L 0.65625 -1.125 L 0.75 -1.125 C 0.882812 -0.90625 1.050781 -0.742188 1.25 -0.640625 C 1.445312 -0.535156 1.679688 -0.484375 1.953125 -0.484375 C 2.265625 -0.484375 2.5 -0.539062 2.65625 -0.65625 C 2.820312 -0.78125 2.90625 -0.957031 2.90625 -1.1875 C 2.90625 -1.351562 2.851562 -1.488281 2.75 -1.59375 C 2.65625 -1.707031 2.5 -1.789062 2.28125 -1.84375 L 1.5625 -2.015625 C 1.175781 -2.109375 0.894531 -2.253906 0.71875 -2.453125 C 0.539062 -2.660156 0.453125 -2.910156 0.453125 -3.203125 C 0.453125 -3.441406 0.507812 -3.644531 0.625 -3.8125 C 0.75 -3.976562 0.921875 -4.109375 1.140625 -4.203125 C 1.367188 -4.296875 1.632812 -4.34375 1.9375 -4.34375 C 2.332031 -4.34375 2.640625 -4.285156 2.859375 -4.171875 C 3.085938 -4.066406 3.265625 -3.914062 3.390625 -3.71875 L 3.03125 -3.375 L 2.953125 -3.375 C 2.816406 -3.53125 2.664062 -3.644531 2.5 -3.71875 C 2.34375 -3.789062 2.15625 -3.828125 1.9375 -3.828125 C 1.65625 -3.828125 1.4375 -3.773438 1.28125 -3.671875 C 1.132812 -3.566406 1.0625 -3.421875 1.0625 -3.234375 C 1.0625 -3.054688 1.113281 -2.914062 1.21875 -2.8125 C 1.332031 -2.707031 1.519531 -2.625 1.78125 -2.5625 L 2.484375 -2.390625 C 2.859375 -2.304688 3.128906 -2.160156 3.296875 -1.953125 C 3.460938 -1.742188 3.546875 -1.488281 3.546875 -1.1875 C 3.546875 -0.9375 3.484375 -0.710938 3.359375 -0.515625 C 3.242188 -0.328125 3.066406 -0.179688 2.828125 -0.078125 C 2.585938 0.0234375 2.296875 0.078125 1.953125 0.078125 Z M 1.953125 0.078125 "/></g></g></g><g clip-path="url(#9160bccac9)"><g clip-path="url(#5eb170cbf8)"><g clip-path="url(#4259ee888f)"><path fill="#ff914d" d="M 47.03125 1.269531 C 47.59375 2.082031 48.101562 2.925781 48.558594 3.804688 C 49.371094 5.386719 50.097656 7.003906 50.742188 8.660156 C 51.136719 9.664062 51.003906 10.019531 50.03125 10.507812 C 49.109375 10.96875 48.097656 11.003906 47.101562 11.066406 C 45.980469 11.128906 44.863281 11.097656 43.75 10.964844 C 42.914062 10.882812 42.125 10.632812 41.386719 10.226562 C 40.46875 9.714844 40.238281 9.15625 40.582031 8.152344 C 40.917969 7.175781 41.449219 6.285156 41.964844 5.390625 C 42.777344 3.972656 43.785156 2.6875 44.738281 1.363281 C 45.351562 0.519531 46.28125 0.46875 47.03125 1.269531 Z M 47.03125 1.269531 " fill-opacity="1" fill-rule="nonzero"/></g></g></g><g clip-path="url(#c67719c5e2)"><g clip-path="url(#5d8c0df8a7)"><g clip-path="url(#47e7e41d09)"><path fill="#ff914d" d="M 12.695312 10.964844 C 11.742188 11.222656 10.773438 11.417969 9.796875 11.554688 C 8.035156 11.792969 6.265625 11.9375 4.492188 11.988281 C 3.414062 12.023438 3.121094 11.78125 2.988281 10.699219 C 2.859375 9.675781 3.167969 8.710938 3.441406 7.75 C 3.753906 6.675781 4.160156 5.632812 4.65625 4.628906 C 5.019531 3.867188 5.515625 3.207031 6.144531 2.648438 C 6.933594 1.957031 7.539062 1.925781 8.367188 2.582031 C 9.179688 3.226562 9.839844 4.027344 10.507812 4.808594 C 11.570312 6.050781 12.449219 7.429688 13.375 8.773438 C 13.964844 9.632812 13.699219 10.523438 12.695312 10.964844 Z M 12.695312 10.964844 " fill-opacity="1" fill-rule="nonzero"/></g></g></g><g clip-path="url(#90b4ebfc7f)"><path fill="#ffffff" d="M 3.910156 12.660156 C 4.039062 11.761719 4.21875 10.875 4.457031 10 C 4.894531 8.429688 5.410156 6.886719 6.007812 5.367188 C 6.367188 4.445312 6.675781 4.289062 7.636719 4.566406 C 8.546875 4.828125 9.25 5.433594 9.960938 6.011719 C 10.753906 6.664062 11.484375 7.382812 12.15625 8.164062 C 12.667969 8.742188 13.046875 9.398438 13.289062 10.132812 C 13.589844 11.046875 13.398438 11.570312 12.542969 12.03125 C 11.707031 12.480469 10.792969 12.75 9.890625 13.035156 C 8.460938 13.484375 6.980469 13.722656 5.515625 14.019531 C 4.578125 14.210938 3.917969 13.664062 3.910156 12.660156 Z M 3.910156 12.660156 " fill-opacity="1" fill-rule="nonzero"/></g><g clip-path="url(#0eef50d7bd)"><g clip-path="url(#a9504f785a)"><g clip-path="url(#97ae624118)"><path fill="#ffffff" d="M 48.351562 4.15625 C 48.757812 4.964844 49.117188 5.796875 49.421875 6.652344 C 49.960938 8.1875 50.421875 9.75 50.800781 11.335938 C 51.03125 12.296875 50.867188 12.605469 49.921875 12.925781 C 49.027344 13.230469 48.101562 13.136719 47.1875 13.070312 C 46.164062 12.988281 45.152344 12.816406 44.15625 12.558594 C 43.40625 12.378906 42.722656 12.054688 42.101562 11.59375 C 41.332031 11.011719 41.191406 10.476562 41.628906 9.609375 C 42.054688 8.761719 42.652344 8.019531 43.226562 7.269531 C 44.144531 6.085938 45.222656 5.039062 46.253906 3.957031 C 46.914062 3.265625 47.765625 3.335938 48.351562 4.15625 Z M 48.351562 4.15625 " fill-opacity="1" fill-rule="nonzero"/></g></g></g></svg>